<svg width="121" height="28" viewBox="0 0 121 28" fill="none" xmlns="http://www.w3.org/2000/svg">
<path d="M3.6 0.231998V18.248H15.824V21H0.528V0.231998H3.6ZM42.5093 21.352C40.9519 21.352 39.5226 21.0213 38.2213 20.36C36.9199 19.6987 35.8853 18.7493 35.1173 17.512C34.3493 16.2747 33.9653 14.792 33.9653 13.064C33.9653 11.3147 34.3493 9.82133 35.1173 8.584C35.8853 7.32533 36.9199 6.36533 38.2213 5.704C39.5226 5.04267 40.9519 4.712 42.5093 4.712C44.0666 4.712 45.4853 5.04267 46.7653 5.704C48.0453 6.36533 49.0693 7.32533 49.8373 8.584C50.6053 9.82133 50.9893 11.3147 50.9893 13.064C50.9893 14.792 50.6053 16.2747 49.8373 17.512C49.0693 18.7493 48.0453 19.6987 46.7653 20.36C45.4853 21.0213 44.0666 21.352 42.5093 21.352ZM42.5093 18.696C43.4693 18.696 44.3546 18.4827 45.1653 18.056C45.9973 17.608 46.6586 16.968 47.1493 16.136C47.6613 15.2827 47.9173 14.2587 47.9173 13.064C47.9173 11.848 47.6613 10.8133 47.1493 9.96C46.6586 9.10667 45.9973 8.456 45.1653 8.008C44.3546 7.56 43.4693 7.336 42.5093 7.336C41.5493 7.336 40.6533 7.56 39.8213 8.008C38.9893 8.43467 38.3173 9.07467 37.8053 9.928C37.2933 10.7813 37.0373 11.8267 37.0373 13.064C37.0373 14.2587 37.2826 15.2827 37.7733 16.136C38.2853 16.968 38.9573 17.608 39.7893 18.056C40.6213 18.4827 41.5279 18.696 42.5093 18.696ZM76.6355 18.504C75.3128 18.504 74.0968 18.2373 72.9875 17.704C71.8782 17.1707 70.9928 16.392 70.3315 15.368C69.6915 14.344 69.3715 13.1067 69.3715 11.656C69.3715 10.2267 69.6915 9 70.3315 7.976C70.9715 6.93067 71.8355 6.13067 72.9235 5.576C74.0328 5 75.2702 4.712 76.6355 4.712C77.0408 4.712 77.4248 4.744 77.7875 4.808C78.1502 4.85067 78.5022 4.92533 78.8435 5.032H85.8195V7.912C84.8595 7.912 83.8888 7.752 82.9075 7.432C81.9475 7.112 81.1048 6.77067 80.3795 6.408L80.2835 6.248C81.0088 6.632 81.6382 7.10133 82.1715 7.656C82.7048 8.18933 83.1102 8.79733 83.3875 9.48C83.6862 10.1413 83.8355 10.888 83.8355 11.72C83.8355 13.128 83.5155 14.344 82.8755 15.368C82.2568 16.392 81.3928 17.1707 80.2835 17.704C79.1955 18.2373 77.9795 18.504 76.6355 18.504ZM81.5315 27.464V26.728C81.5315 25.64 81.2328 24.8613 80.6355 24.392C80.0382 23.9227 79.1635 23.688 78.0115 23.688H74.2675C73.4782 23.688 72.8062 23.624 72.2515 23.496C71.6968 23.368 71.2382 23.176 70.8755 22.92C70.5128 22.6853 70.2462 22.3867 70.0755 22.024C69.9048 21.6827 69.8195 21.2987 69.8195 20.872C69.8195 20.04 70.0755 19.4107 70.5875 18.984C71.0995 18.5573 71.7502 18.2907 72.5395 18.184C73.3288 18.056 74.1288 18.0453 74.9395 18.152L76.6355 18.504C75.4195 18.568 74.4915 18.6853 73.8515 18.856C73.2115 19.0267 72.8915 19.3893 72.8915 19.944C72.8915 20.264 73.0195 20.52 73.2755 20.712C73.5315 20.904 73.8942 21 74.3635 21H78.2675C79.4835 21 80.5608 21.1493 81.4995 21.448C82.4595 21.768 83.2062 22.2907 83.7395 23.016C84.2942 23.7627 84.5715 24.776 84.5715 26.056V27.464H81.5315ZM76.6355 15.912C77.4035 15.912 78.0968 15.752 78.7155 15.432C79.3555 15.0907 79.8675 14.6107 80.2515 13.992C80.6355 13.352 80.8275 12.584 80.8275 11.688C80.8275 10.7707 80.6355 9.992 80.2515 9.352C79.8888 8.69067 79.3875 8.2 78.7475 7.88C78.1075 7.53867 77.4035 7.368 76.6355 7.368C75.8675 7.368 75.1528 7.53867 74.4915 7.88C73.8515 8.2 73.3395 8.68 72.9555 9.32C72.5715 9.96 72.3795 10.7493 72.3795 11.688C72.3795 12.584 72.5715 13.352 72.9555 13.992C73.3395 14.6107 73.8515 15.0907 74.4915 15.432C75.1315 15.752 75.8462 15.912 76.6355 15.912ZM112.353 21.352C110.796 21.352 109.366 21.0213 108.065 20.36C106.764 19.6987 105.729 18.7493 104.961 17.512C104.193 16.2747 103.809 14.792 103.809 13.064C103.809 11.3147 104.193 9.82133 104.961 8.584C105.729 7.32533 106.764 6.36533 108.065 5.704C109.366 5.04267 110.796 4.712 112.353 4.712C113.91 4.712 115.329 5.04267 116.609 5.704C117.889 6.36533 118.913 7.32533 119.681 8.584C120.449 9.82133 120.833 11.3147 120.833 13.064C120.833 14.792 120.449 16.2747 119.681 17.512C118.913 18.7493 117.889 19.6987 116.609 20.36C115.329 21.0213 113.91 21.352 112.353 21.352ZM112.353 18.696C113.313 18.696 114.198 18.4827 115.009 18.056C115.841 17.608 116.502 16.968 116.993 16.136C117.505 15.2827 117.761 14.2587 117.761 13.064C117.761 11.848 117.505 10.8133 116.993 9.96C116.502 9.10667 115.841 8.456 115.009 8.008C114.198 7.56 113.313 7.336 112.353 7.336C111.393 7.336 110.497 7.56 109.665 8.008C108.833 8.43467 108.161 9.07467 107.649 9.928C107.137 10.7813 106.881 11.8267 106.881 13.064C106.881 14.2587 107.126 15.2827 107.617 16.136C108.129 16.968 108.801 17.608 109.633 18.056C110.465 18.4827 111.372 18.696 112.353 18.696Z" fill="white"/>
</svg>
